<?xml version="1.0" standalone="no"?>
<!DOCTYPE svg PUBLIC "-//W3C//DTD SVG 20010904//EN"
 "http://www.w3.org/TR/2001/REC-SVG-20010904/DTD/svg10.dtd">
<svg version="1.0" xmlns="http://www.w3.org/2000/svg"
 width="894.000000pt" height="894.000000pt" viewBox="0 0 894.000000 894.000000"
 preserveAspectRatio="xMidYMid meet">
<metadata>
Created by potrace 1.14, written by Peter Selinger 2001-2017
</metadata>
<g transform="translate(0.000000,894.000000) scale(0.100000,-0.100000)"
fill="#000000" stroke="none">
<path d="M345 8530 c-4 -6 -10 -8 -15 -5 -5 3 -11 1 -15 -5 -4 -6 -11 -8 -16
-5 -5 4 -9 1 -9 -5 0 -6 -4 -9 -9 -5 -5 3 -12 1 -16 -5 -4 -6 -11 -7 -17 -4
-7 5 -9 2 -6 -8 5 -11 0 -14 -17 -12 -17 1 -26 -4 -30 -17 -4 -11 -10 -17 -15
-14 -5 3 -11 1 -15 -5 -4 -6 -11 -8 -16 -5 -5 3 -6 -1 -3 -9 3 -9 -2 -17 -15
-21 -12 -3 -19 -10 -16 -15 3 -4 -2 -11 -11 -14 -9 -4 -14 -9 -11 -12 2 -3 -6
-16 -20 -30 -13 -13 -22 -28 -19 -33 3 -5 -2 -12 -11 -15 -15 -6 -15 -8 -3
-16 13 -8 12 -10 -2 -10 -10 0 -18 -5 -18 -11 0 -5 5 -7 12 -3 7 4 2 -6 -9
-22 -16 -23 -19 -34 -11 -48 8 -14 7 -17 -1 -12 -8 5 -11 -955 -11 -3683 0
-2030 3 -3691 8 -3691 4 0 8 -11 10 -25 1 -14 3 -36 4 -49 2 -16 8 -22 18 -18
13 5 13 3 1 -11 -12 -15 -11 -17 3 -17 10 0 14 -4 11 -10 -3 -5 -1 -10 5 -10
6 0 9 -4 5 -9 -3 -5 3 -16 13 -23 19 -13 22 -18 22 -40 0 -9 4 -8 11 2 9 12
10 11 6 -8 -3 -12 -1 -19 4 -16 5 3 12 -2 15 -10 3 -9 10 -13 15 -10 5 3 12
-2 15 -10 3 -8 14 -18 25 -21 10 -4 19 -14 19 -23 0 -12 3 -13 12 -4 14 14 32
16 24 3 -3 -5 2 -15 11 -22 14 -11 15 -11 9 -1 -6 9 2 8 25 -4 19 -10 48 -17
66 -17 18 0 31 -4 30 -10 -1 -5 4 -12 12 -15 8 -2 11 0 8 5 -7 11 43 11 61 0
7 -5 12 -3 12 3 0 6 5 8 12 4 16 -10 48 -13 48 -4 0 8 32 6 47 -3 6 -4 14 -3
18 3 4 6 12 7 18 3 17 -11 37 -13 37 -4 0 9 31 8 48 -3 7 -4 12 -2 12 4 0 6 5
8 12 4 16 -10 48 -13 48 -4 0 10 45 7 52 -4 5 -7 8 -6 8 3 0 8 6 11 16 7 11
-4 15 -2 11 7 -3 8 6 12 29 11 19 -1 34 2 34 7 0 5 3 8 8 8 16 -4 72 24 66 32
-3 5 -2 8 3 7 15 -4 53 13 48 22 -3 5 4 11 15 15 11 4 18 11 15 16 -4 5 -2 9
3 9 5 0 18 8 30 18 17 15 19 21 9 32 -9 10 -9 11 1 6 7 -4 12 -1 12 8 0 9 5
16 11 16 5 0 7 -6 3 -12 -4 -7 -3 -10 1 -5 5 4 10 17 12 29 2 12 8 27 13 33 5
7 7 15 3 18 -3 4 -1 7 5 7 7 0 11 3 11 8 -3 20 2 43 9 38 4 -2 8 4 8 14 0 15
-3 17 -16 7 -8 -6 -4 2 10 17 14 16 20 26 13 23 -7 -5 -10 4 -8 29 2 20 6 39
9 42 3 3 1 11 -5 19 -9 10 -8 13 1 13 9 0 9 4 2 13 -7 8 -7 18 -2 27 5 9 5 19
-2 27 -7 9 -7 13 2 13 9 0 9 4 2 13 -7 8 -7 18 -2 27 5 9 5 19 -2 27 -7 9 -7
13 2 13 9 0 9 4 2 13 -7 8 -7 18 -2 27 5 9 5 19 -2 27 -7 9 -7 13 2 13 9 0 9
4 2 13 -7 8 -7 18 -2 27 5 9 5 19 -2 27 -7 9 -7 13 0 13 6 0 7 13 2 34 -4 19
-4 40 1 47 4 7 3 19 -3 26 -6 7 -7 13 -2 13 5 0 7 43 4 96 -3 53 -2 101 2 107
4 6 2 17 -4 24 -6 7 -7 13 -2 13 5 0 7 43 4 96 -3 53 -2 101 2 107 4 6 2 17
-4 24 -6 7 -7 13 -2 13 5 0 7 43 4 96 -3 53 -2 101 2 107 4 6 2 17 -4 24 -6 7
-7 13 -2 13 5 0 7 43 4 96 -3 53 -2 101 2 107 4 6 2 17 -4 24 -6 7 -7 13 -2
13 5 0 7 43 4 96 -3 53 -2 101 2 107 4 6 2 17 -4 24 -6 7 -7 13 -2 13 5 0 7
43 4 96 -3 53 -2 101 2 107 4 6 2 17 -4 24 -6 7 -7 13 -2 13 5 0 7 43 4 96 -3
53 -2 101 2 107 4 6 2 17 -4 24 -6 7 -7 13 -2 13 5 0 7 43 4 96 -3 53 -2 101
2 107 4 6 2 17 -4 24 -6 7 -7 13 -2 13 5 0 7 43 4 96 -3 53 -2 101 2 107 4 6
2 17 -4 24 -6 7 -7 13 -2 13 5 0 7 43 4 96 -3 53 -2 101 2 107 4 6 2 17 -4 24
-7 9 -7 13 0 13 6 0 7 13 2 34 -4 19 -4 40 1 47 4 7 3 19 -3 26 -7 9 -7 13 2
13 9 0 9 4 2 13 -7 8 -7 18 -2 27 5 9 5 19 -2 27 -7 9 -7 13 2 13 9 0 9 4 2
13 -7 8 -7 18 -2 27 5 9 5 19 -2 27 -7 9 -7 13 2 13 9 0 9 4 2 13 -7 8 -7 18
-2 27 5 9 5 19 -2 27 -7 9 -7 13 2 13 9 0 9 4 2 13 -7 8 -7 18 -2 27 5 9 5 19
-2 27 -7 9 -7 13 2 13 9 0 9 4 2 13 -7 8 -7 18 -2 27 5 9 5 19 -2 27 -7 9 -7
13 2 13 9 0 9 4 2 13 -7 8 -7 18 -2 27 5 9 5 19 -2 27 -7 9 -7 13 2 13 9 0 9
4 2 13 -7 8 -7 18 -2 27 5 9 5 19 -2 27 -7 9 -7 13 2 13 9 0 9 4 2 13 -7 8 -7
18 -2 27 5 9 5 19 -2 27 -7 9 -7 13 2 13 9 0 9 4 2 13 -7 8 -7 18 -2 27 5 9 5
19 -2 27 -7 9 -7 13 2 13 9 0 9 4 2 13 -7 8 -7 18 -2 27 5 9 5 19 -2 27 -7 9
-7 13 2 13 9 0 9 4 2 13 -7 8 -7 18 -2 27 5 9 5 19 -2 27 -7 9 -7 13 2 13 9 0
9 4 2 13 -7 8 -7 18 -2 27 5 9 5 19 -2 27 -7 9 -7 13 2 13 9 0 9 4 2 13 -7 8
-7 18 -2 27 5 9 5 19 -2 27 -7 9 -7 13 2 13 9 0 9 4 2 13 -7 8 -7 18 -2 27 5
9 5 19 -2 27 -7 9 -7 13 2 13 9 0 9 4 2 13 -7 8 -7 18 -2 27 5 9 5 19 -2 27
-7 9 -7 13 0 13 6 0 7 13 2 34 -4 19 -4 40 1 47 4 7 3 19 -3 26 -6 7 -7 13 -2
13 5 0 7 43 4 96 -3 53 -2 101 2 107 4 6 2 17 -4 24 -6 7 -7 13 -2 13 5 0 7
43 4 96 -3 53 -2 101 2 107 4 6 2 17 -4 24 -6 7 -7 13 -2 13 5 0 7 43 4 96 -3
53 -2 101 2 107 4 6 2 17 -4 24 -6 7 -7 13 -2 13 5 0 7 43 4 96 -3 53 -2 101
2 107 4 6 2 17 -4 24 -6 7 -7 13 -2 13 5 0 7 43 4 96 -3 53 -2 101 2 107 4 6
2 17 -4 24 -6 7 -7 13 -2 13 5 0 7 43 4 96 -3 53 -2 101 2 107 4 6 2 17 -4 24
-6 7 -7 13 -2 13 5 0 7 43 4 96 -3 53 -2 101 2 107 4 6 2 17 -4 24 -6 7 -7 13
-2 13 5 0 7 43 4 96 -3 53 -2 101 2 107 4 6 2 17 -4 24 -6 7 -7 13 -2 13 5 0
7 43 4 96 -3 53 -2 101 2 107 4 6 2 17 -4 24 -6 7 -7 13 -2 13 5 0 7 43 4 96
-3 53 -2 101 2 107 4 6 2 17 -4 24 -7 9 -7 13 0 13 6 0 7 13 2 34 -4 19 -4 40
1 47 4 7 3 19 -3 26 -7 9 -7 13 2 13 9 0 9 4 2 13 -7 8 -7 18 -2 27 5 9 5 19
-2 27 -7 9 -7 13 2 13 9 0 9 4 2 13 -7 8 -7 18 -2 27 5 9 5 19 -2 27 -7 9 -7
13 2 13 9 0 9 4 2 13 -7 8 -7 18 -2 27 5 9 5 19 -2 27 -6 8 -7 13 -1 13 10 0
8 60 -2 87 -2 7 0 15 5 18 5 3 5 18 0 35 -5 17 -6 30 -3 30 3 0 -1 8 -8 17 -8
9 -9 14 -3 10 7 -4 15 1 18 10 4 10 4 14 0 10 -13 -12 -35 44 -24 58 8 10 6
17 -9 27 -12 8 -18 18 -14 21 3 4 1 7 -6 7 -7 0 -9 5 -6 10 3 6 1 10 -5 10 -6
0 -8 5 -5 10 3 6 1 10 -6 10 -7 0 -9 3 -6 6 4 4 -6 18 -21 30 -15 13 -23 24
-19 24 4 0 -4 11 -19 25 -15 14 -34 25 -43 25 -14 0 -14 2 -1 11 12 9 11 10
-8 6 -14 -3 -20 -1 -15 6 4 7 0 8 -13 3 -10 -4 -15 -4 -11 0 4 4 -5 15 -20 25
-20 13 -30 15 -40 7 -11 -8 -12 -7 -7 7 5 13 4 16 -4 11 -7 -4 -12 -3 -12 3 0
6 -6 8 -14 5 -8 -3 -17 -1 -20 5 -8 13 -493 14 -501 1 -3 -6 -12 -10 -18 -10
-7 0 -6 4 3 10 9 6 10 10 3 10 -6 0 -15 -5 -18 -10z"/>
<path d="M2364 8521 c3 -5 -3 -11 -14 -14 -11 -3 -18 -1 -14 4 3 5 1 9 -5 9
-5 0 -14 -8 -20 -17 -9 -17 -10 -17 -16 -1 -6 15 -9 16 -22 3 -8 -9 -19 -13
-24 -10 -5 4 -6 -2 -2 -12 6 -16 5 -17 -12 -3 -15 12 -17 12 -10 1 6 -11 3
-13 -13 -9 -12 3 -21 3 -20 -1 2 -18 -4 -22 -17 -11 -13 11 -14 10 -10 -3 4
-8 1 -18 -6 -23 -8 -5 -10 -3 -4 6 5 9 4 11 -3 6 -7 -4 -12 -15 -12 -24 0 -15
-2 -15 -10 -2 -8 13 -10 12 -10 -2 0 -16 -11 -23 -32 -19 -5 0 -7 -5 -5 -11 1
-7 -3 -12 -10 -11 -7 2 -10 -3 -7 -11 3 -7 -6 -20 -20 -29 -16 -11 -24 -24
-21 -37 2 -11 0 -18 -6 -15 -8 6 -13 -8 -10 -27 0 -5 -4 -8 -10 -8 -5 0 -8 -4
-5 -9 3 -5 0 -11 -8 -14 -9 -3 -12 -15 -9 -31 4 -18 1 -26 -8 -26 -11 0 -11
-2 1 -10 11 -7 11 -10 2 -10 -7 0 -11 -4 -8 -9 4 -5 0 -12 -6 -14 -10 -4 -10
-6 -1 -6 9 -1 10 -8 4 -23 -5 -13 -5 -32 -1 -43 4 -11 3 -26 -2 -32 -7 -9 -7
-13 0 -13 6 0 7 -13 2 -35 -4 -19 -4 -35 1 -35 5 0 4 -11 -1 -25 -6 -15 -6
-25 0 -25 5 0 5 -12 0 -30 -5 -16 -5 -30 -1 -30 9 0 8 -31 -3 -48 -4 -6 -3
-12 2 -12 6 0 7 -14 2 -35 -4 -19 -4 -35 0 -35 4 0 4 -16 0 -35 -5 -23 -4 -35
4 -38 8 -3 7 -9 -3 -20 -8 -11 -9 -17 -2 -17 7 0 8 -8 2 -23 -5 -13 -6 -30 -1
-37 5 -7 4 -24 0 -36 -6 -15 -5 -24 3 -27 9 -3 9 -8 -2 -20 -8 -11 -9 -17 -2
-17 7 0 8 -8 2 -23 -5 -13 -6 -30 -1 -37 5 -7 4 -24 0 -36 -6 -15 -5 -24 3
-27 9 -3 9 -8 -2 -20 -8 -11 -9 -17 -2 -17 7 0 8 -8 2 -23 -5 -13 -6 -30 -1
-37 5 -7 4 -24 0 -36 -6 -15 -5 -24 3 -27 9 -3 9 -8 -2 -20 -8 -11 -9 -17 -2
-17 7 0 8 -8 2 -23 -5 -13 -5 -30 -1 -37 5 -8 5 -19 -1 -26 -7 -8 -6 -14 1
-19 8 -5 8 -10 0 -20 -6 -7 -7 -16 -2 -19 10 -6 9 -36 -2 -54 -4 -6 -4 -18 0
-24 10 -16 10 -50 0 -66 -4 -6 -3 -12 2 -12 6 0 7 -14 2 -35 -4 -19 -4 -35 1
-35 5 0 4 -11 -1 -25 -6 -15 -6 -25 0 -25 5 0 5 -12 0 -30 -5 -16 -5 -30 -1
-30 9 0 8 -31 -3 -48 -4 -6 -3 -12 2 -12 6 0 7 -14 2 -35 -4 -19 -4 -35 1 -35
5 0 4 -11 -1 -25 -6 -15 -6 -25 0 -25 5 0 5 -12 0 -30 -5 -16 -5 -30 -1 -30 9
0 8 -31 -3 -48 -4 -6 -3 -12 2 -12 6 0 7 -14 2 -35 -4 -19 -4 -35 0 -35 10 0
8 -20 -3 -37 -5 -8 -3 -13 3 -13 6 0 8 -4 5 -10 -3 -5 0 -10 7 -10 9 0 9 -3
-2 -10 -12 -7 -12 -10 -1 -10 7 0 11 -6 7 -15 -3 -8 -1 -15 5 -15 6 0 7 -5 3
-12 -4 -6 1 -17 11 -25 14 -9 15 -13 4 -13 -11 0 -11 -2 -1 -9 7 -4 14 -17 15
-29 0 -11 5 -18 11 -15 5 4 7 -1 3 -10 -4 -12 -2 -14 10 -10 10 4 14 2 10 -4
-4 -6 0 -14 9 -17 8 -3 12 -10 9 -16 -3 -5 -1 -10 6 -10 13 0 49 -38 49 -52 0
-4 3 -7 8 -7 19 3 33 -2 27 -11 -3 -5 6 -12 20 -16 14 -3 22 -11 18 -17 -4 -6
-1 -7 7 -2 7 4 16 2 21 -6 6 -10 9 -11 9 -1 0 7 8 4 20 -8 11 -11 26 -17 34
-14 8 3 17 1 20 -4 3 -5 19 -8 36 -6 17 2 28 0 25 -5 -3 -6 6 -6 23 -2 16 5
36 5 45 -1 12 -6 17 -5 17 4 0 9 3 9 12 0 8 -8 15 -9 25 -1 10 9 13 8 13 -1 0
-9 3 -10 13 -1 8 6 17 8 21 4 10 -10 46 -11 46 -1 0 5 9 4 20 -2 11 -6 20 -7
20 -2 0 10 30 9 47 -1 6 -4 14 -3 18 3 4 6 12 7 18 3 16 -10 37 -13 37 -5 0 4
11 8 25 8 14 1 22 -2 19 -8 -3 -5 3 -5 15 1 12 6 30 16 42 22 15 7 19 7 14 0
-4 -8 2 -7 19 0 14 7 22 17 19 23 -4 6 0 5 9 -2 14 -11 18 -10 26 3 5 9 12 16
15 16 26 -4 37 1 37 16 0 9 3 14 6 10 9 -9 33 16 26 28 -3 6 3 3 13 -5 11 -9
16 -10 11 -2 -4 7 -2 12 4 12 6 0 9 4 5 9 -3 5 4 12 15 16 11 3 19 12 17 18
-1 7 4 11 11 9 8 -1 11 2 7 8 -3 5 1 13 9 16 9 3 13 10 10 15 -3 5 4 22 15 38
16 22 18 31 9 34 -8 3 -6 6 5 6 11 1 17 7 15 19 -2 10 2 16 11 14 12 -3 12 0
2 12 -8 9 -8 16 -2 20 7 4 10 159 10 437 1 237 3 435 6 440 4 5 1 9 -5 9 -7 0
-8 6 -2 16 5 9 6 31 2 50 -5 20 -3 37 3 43 8 8 7 11 -1 11 -9 0 -10 5 -4 16 5
9 6 31 2 50 -5 20 -3 37 3 43 8 8 7 11 -1 11 -9 0 -10 5 -4 16 5 9 6 31 2 50
-5 20 -3 37 3 43 8 8 7 11 -1 11 -9 0 -10 5 -4 16 5 9 6 31 2 50 -5 20 -3 37
3 43 8 8 7 11 -1 11 -9 0 -10 5 -4 16 5 9 6 31 2 50 -5 20 -3 37 3 43 8 8 7
11 -1 11 -9 0 -10 5 -4 16 5 9 6 31 2 50 -5 20 -3 37 3 43 8 8 7 11 -1 11 -9
0 -10 5 -4 16 5 9 6 31 2 50 -5 20 -3 37 3 43 8 8 7 11 -1 11 -9 0 -10 5 -4
16 5 9 6 31 2 50 -5 20 -3 37 3 43 8 8 7 11 -1 11 -9 0 -10 5 -3 17 5 10 5 26
0 40 -5 14 -5 23 1 23 6 0 6 9 1 23 -4 12 -6 28 -3 36 2 8 0 11 -6 7 -13 -8
-22 17 -12 35 10 16 -7 42 -22 33 -6 -4 -4 4 2 17 7 13 9 21 5 16 -5 -4 -15 7
-22 24 -7 17 -17 28 -23 24 -6 -4 -10 -3 -9 2 4 22 -2 43 -11 38 -5 -3 -10 1
-10 9 0 17 -39 48 -52 40 -4 -3 -8 0 -8 6 0 6 -12 22 -27 35 -21 17 -31 21
-41 12 -10 -8 -12 -7 -10 4 2 8 -3 13 -9 12 -7 -2 -13 1 -13 6 0 5 -7 12 -16
15 -10 4 -13 2 -9 -7 4 -6 1 -5 -7 3 -14 17 -32 20 -44 7 -4 -4 -14 -1 -23 6
-20 17 -51 29 -51 19 0 -9 -53 -8 -68 2 -7 4 -12 3 -12 -3 0 -6 -11 -6 -30 -1
-16 5 -30 6 -30 2 0 -4 -43 -5 -96 -2 -53 3 -101 2 -107 -2 -6 -3 -21 -2 -34
3 -14 5 -22 5 -19 0z"/>
<path d="M4284 8521 c3 -5 -3 -11 -14 -14 -11 -3 -18 -1 -14 4 3 5 1 9 -5 9
-5 0 -14 -8 -20 -17 -9 -17 -10 -17 -16 -1 -6 15 -9 16 -22 3 -8 -9 -19 -13
-24 -10 -5 4 -6 -2 -2 -12 6 -16 5 -17 -12 -3 -10 8 -16 10 -12 4 4 -7 0 -15
-9 -18 -10 -4 -13 -2 -9 7 4 6 -2 2 -13 -10 -11 -12 -22 -20 -25 -17 -3 3 -19
-9 -36 -27 -17 -17 -31 -28 -31 -23 0 5 -5 1 -11 -9 -6 -10 -15 -14 -22 -10
-7 4 -5 -2 3 -12 9 -11 10 -16 3 -11 -8 4 -13 1 -13 -8 0 -9 -3 -15 -7 -13 -5
1 -9 -2 -10 -6 -1 -5 -10 -15 -20 -24 -10 -8 -11 -11 -4 -7 9 4 6 -6 -8 -24
-12 -18 -19 -37 -15 -43 4 -8 3 -9 -4 -5 -8 5 -12 -3 -12 -23 0 -17 -5 -31
-11 -31 -8 0 -8 -4 0 -14 8 -10 8 -16 -2 -25 -14 -11 -16 -38 -4 -58 4 -6 3
-15 -3 -18 -8 -5 -7 -11 1 -21 7 -9 8 -19 2 -26 -5 -7 -8 -24 -6 -38 2 -14 3
-34 3 -45 -1 -11 -1 -27 0 -35 1 -30 0 -45 -4 -65 -2 -11 1 -26 7 -32 6 -8 6
-18 0 -25 -5 -7 -8 -24 -6 -38 5 -34 3 -92 -3 -101 -2 -4 0 -10 6 -14 6 -4 7
-12 1 -24 -5 -9 -6 -23 -1 -31 4 -7 5 -23 0 -34 -10 -28 -10 -39 2 -53 7 -8 7
-18 1 -25 -5 -7 -8 -24 -6 -38 2 -14 3 -34 3 -45 -1 -11 -1 -27 0 -35 1 -30 0
-45 -4 -65 -2 -11 1 -26 7 -32 6 -8 6 -18 0 -25 -5 -7 -8 -24 -6 -38 2 -14 3
-34 3 -45 -1 -11 -1 -27 0 -35 1 -30 0 -45 -4 -65 -2 -11 1 -26 7 -32 6 -8 6
-18 0 -25 -5 -7 -8 -24 -6 -38 2 -14 3 -34 3 -45 -1 -11 -1 -27 0 -35 1 -30 0
-45 -4 -65 -2 -11 1 -26 7 -32 6 -8 6 -18 0 -25 -5 -7 -8 -24 -6 -38 2 -14 3
-34 3 -45 -1 -11 -1 -27 0 -35 1 -30 0 -45 -4 -65 -2 -11 1 -26 7 -32 6 -8 6
-18 0 -25 -5 -7 -8 -24 -6 -38 2 -14 3 -36 2 -50 0 -14 0 -32 0 -40 1 -8 1
-24 1 -35 -1 -11 -1 -27 0 -35 1 -30 0 -45 -4 -65 -2 -11 1 -26 7 -32 6 -8 6
-18 0 -25 -5 -7 -8 -24 -6 -38 2 -14 3 -34 3 -45 -1 -11 -1 -27 0 -35 1 -30 0
-45 -4 -65 -2 -11 1 -26 7 -32 6 -8 6 -18 0 -25 -5 -7 -8 -24 -6 -38 2 -14 3
-34 3 -45 -1 -11 -1 -27 0 -35 1 -30 0 -45 -4 -65 -2 -11 1 -26 7 -32 6 -8 6
-18 0 -25 -5 -7 -8 -24 -6 -38 2 -14 3 -34 3 -45 -1 -11 -1 -27 0 -35 1 -30 0
-45 -4 -65 -2 -11 1 -26 7 -32 6 -8 6 -18 0 -25 -5 -7 -8 -24 -6 -38 2 -14 3
-34 3 -45 -1 -11 -1 -27 0 -35 1 -30 0 -45 -4 -65 -2 -11 1 -26 7 -32 6 -8 6
-18 0 -25 -5 -7 -8 -24 -6 -38 5 -34 3 -92 -3 -101 -2 -4 0 -10 6 -14 6 -4 7
-12 1 -24 -5 -9 -6 -23 -1 -31 4 -7 5 -23 1 -34 -9 -25 -8 -37 3 -54 4 -7 4
-18 -1 -25 -5 -7 -8 -23 -6 -37 2 -14 3 -34 3 -45 -1 -11 -1 -27 0 -35 1 -30
0 -45 -4 -65 -2 -11 1 -26 7 -32 6 -8 6 -18 0 -25 -5 -7 -8 -24 -6 -38 2 -14
3 -34 3 -45 -1 -11 -1 -27 0 -35 1 -30 0 -45 -4 -65 -2 -11 1 -26 7 -32 6 -8
6 -18 0 -25 -5 -7 -8 -24 -6 -38 2 -14 3 -34 3 -45 -1 -11 -1 -27 0 -35 1 -30
0 -45 -4 -65 -2 -11 1 -26 7 -32 6 -8 6 -18 0 -25 -5 -7 -8 -24 -6 -38 2 -14
3 -34 3 -45 -1 -11 -1 -27 0 -35 1 -30 0 -45 -4 -65 -2 -11 1 -26 7 -32 6 -8
6 -18 0 -25 -5 -7 -8 -22 -6 -33 8 -58 9 -87 3 -90 -8 -5 -6 -37 3 -52 4 -6 3
-15 -3 -18 -8 -5 -7 -11 1 -21 7 -9 8 -19 2 -26 -5 -7 -8 -24 -6 -38 2 -14 3
-34 3 -45 -1 -11 -1 -27 0 -35 1 -30 0 -45 -4 -65 -2 -11 1 -26 7 -32 6 -8 6
-18 0 -25 -5 -7 -8 -24 -6 -38 2 -14 3 -34 3 -45 -1 -11 -1 -27 0 -35 1 -30 0
-45 -4 -65 -2 -11 1 -26 7 -32 6 -8 6 -18 0 -25 -5 -7 -8 -24 -6 -38 2 -14 3
-34 3 -45 -1 -11 -1 -27 0 -35 1 -30 0 -45 -4 -65 -2 -11 1 -26 7 -32 6 -8 6
-18 0 -25 -5 -7 -8 -24 -6 -38 2 -14 3 -34 3 -45 -1 -11 -1 -27 0 -35 1 -30 0
-45 -4 -65 -2 -11 1 -26 7 -32 6 -8 6 -18 0 -25 -5 -7 -8 -24 -6 -38 2 -14 3
-34 3 -45 -1 -11 -1 -27 0 -35 1 -30 0 -45 -4 -65 -2 -11 1 -26 7 -33 6 -7 6
-17 0 -25 -5 -6 -8 -23 -6 -37 2 -14 3 -34 3 -45 -1 -11 -1 -27 0 -35 1 -30 0
-45 -4 -65 -2 -11 1 -26 7 -33 6 -7 6 -17 0 -25 -5 -6 -8 -23 -6 -37 2 -14 3
-34 3 -45 -1 -11 -1 -27 0 -35 1 -30 0 -45 -4 -65 -2 -11 1 -26 7 -33 6 -7 6
-17 0 -25 -5 -6 -8 -23 -6 -37 2 -14 3 -34 3 -45 -1 -11 -1 -27 0 -35 1 -30 0
-45 -4 -65 -2 -11 1 -26 7 -33 6 -7 6 -17 0 -25 -5 -6 -8 -23 -6 -37 2 -14 3
-34 3 -45 -1 -11 -1 -27 0 -35 1 -30 0 -45 -4 -65 -2 -11 1 -26 7 -32 6 -8 6
-18 0 -25 -5 -7 -8 -24 -6 -38 2 -14 3 -34 3 -45 -1 -11 -1 -27 0 -35 1 -30 0
-45 -4 -65 -2 -11 1 -25 6 -32 5 -7 6 -18 2 -25 -11 -18 -12 -48 -2 -54 5 -3
4 -12 -2 -19 -8 -10 -8 -15 0 -20 8 -5 8 -10 0 -20 -8 -10 -8 -15 0 -20 8 -5
8 -10 0 -20 -8 -10 -8 -15 0 -20 8 -5 8 -10 0 -20 -8 -10 -8 -15 0 -20 8 -5 8
-10 0 -20 -8 -10 -8 -15 0 -20 8 -5 8 -10 0 -20 -8 -10 -8 -15 0 -20 8 -5 8
-10 0 -20 -8 -10 -8 -15 0 -20 8 -5 8 -10 0 -20 -8 -10 -8 -15 0 -20 8 -5 8
-10 0 -20 -8 -9 -8 -15 0 -20 7 -4 7 -12 0 -26 -6 -10 -7 -19 -3 -19 5 0 8
-18 8 -41 0 -22 6 -44 14 -48 9 -6 10 -11 3 -15 -15 -9 -3 -38 12 -29 6 3 8 3
4 -2 -4 -4 -2 -15 5 -23 9 -13 9 -14 0 -8 -7 4 -13 3 -13 -3 0 -5 9 -12 19
-16 12 -4 18 -12 14 -21 -3 -7 0 -14 7 -14 6 0 9 -4 6 -8 -3 -5 4 -14 14 -22
10 -8 17 -17 14 -22 -5 -7 10 -12 29 -9 4 0 6 -2 5 -6 -4 -11 59 -73 66 -66 3
4 6 0 6 -7 0 -7 3 -10 7 -7 3 4 12 -1 20 -11 9 -10 12 -11 7 -2 -6 11 -2 10
13 -3 11 -9 23 -14 26 -10 4 3 7 1 7 -5 0 -6 9 -9 20 -7 11 2 20 0 20 -5 0 -4
7 -11 16 -14 10 -4 13 -2 8 7 -6 9 -5 9 7 0 22 -18 493 -18 483 0 -5 9 -4 9 6
0 11 -10 16 -9 26 5 9 11 13 13 14 4 0 -10 5 -10 23 -1 12 7 25 17 29 23 5 8
8 7 8 -1 0 -7 6 -10 14 -7 9 3 12 12 8 22 -5 14 -3 15 10 4 13 -10 17 -10 22
4 4 10 12 14 23 10 10 -4 14 -4 10 0 -10 10 22 44 41 44 9 0 12 3 9 7 -4 3 8
21 27 39 19 18 31 35 28 38 -3 3 0 6 7 6 7 0 11 8 10 18 -3 30 1 35 16 22 12
-10 14 -8 10 9 -2 11 3 28 11 36 10 10 11 15 3 15 -8 0 -9 4 0 13 8 10 7 17
-2 26 -9 10 -9 11 5 6 13 -5 15 -2 11 16 -5 17 -3 20 8 14 11 -7 12 -6 2 6 -7
9 -8 20 -3 29 4 7 4 24 -1 37 -5 13 -5 23 0 23 5 0 5 15 1 34 -4 19 -4 40 1
47 4 7 3 19 -3 26 -7 9 -7 13 0 13 6 0 7 13 2 34 -4 19 -4 40 1 47 4 7 3 19
-3 26 -7 9 -7 13 0 13 6 0 7 13 2 34 -4 19 -4 40 1 47 4 7 3 19 -3 26 -7 9 -7
13 0 13 6 0 7 13 2 34 -4 19 -4 40 1 47 4 7 3 19 -3 26 -7 9 -7 13 0 13 6 0 7
13 2 34 -4 19 -4 40 1 47 4 7 3 19 -3 26 -7 9 -7 13 0 13 6 0 7 13 2 34 -4 19
-4 40 1 47 4 7 3 19 -3 26 -7 9 -7 13 0 13 6 0 7 13 2 34 -4 19 -4 40 1 47 4
7 3 19 -3 26 -7 9 -7 13 0 13 6 0 7 13 2 34 -4 19 -4 40 1 47 4 7 3 19 -3 26
-7 9 -7 13 0 13 6 0 7 13 2 34 -4 19 -4 40 1 47 4 7 3 19 -3 26 -7 9 -7 13 0
13 6 0 7 13 2 34 -4 19 -4 40 1 47 4 7 3 19 -3 26 -7 9 -7 13 0 13 6 0 7 13 2
34 -4 19 -4 40 1 47 4 7 3 19 -3 26 -7 9 -7 13 0 13 6 0 7 13 2 34 -4 19 -4
40 1 47 4 7 3 19 -3 26 -7 9 -7 13 0 13 6 0 7 13 2 34 -4 19 -4 40 1 47 4 7 3
19 -3 26 -7 9 -7 13 0 13 6 0 7 13 2 34 -4 19 -4 40 1 47 4 7 3 19 -3 26 -7 9
-7 13 0 13 6 0 7 13 2 34 -4 19 -4 40 1 47 4 7 3 19 -3 26 -7 9 -7 13 0 13 6
0 7 13 2 34 -4 19 -4 40 1 47 4 7 3 19 -3 26 -7 9 -7 13 0 13 6 0 7 13 2 34
-4 19 -4 40 1 47 4 7 3 19 -3 26 -7 9 -7 13 0 13 6 0 7 13 2 34 -4 19 -4 40 1
47 4 7 3 19 -3 26 -7 9 -7 13 0 13 6 0 7 13 2 34 -4 19 -4 40 1 47 4 7 3 19
-3 26 -7 9 -7 13 0 13 6 0 7 13 2 34 -4 19 -4 40 1 47 4 7 3 19 -3 26 -7 9 -7
13 0 13 6 0 7 13 2 34 -4 19 -4 40 1 47 4 7 3 19 -3 26 -7 9 -7 13 0 13 6 0 7
13 2 34 -4 19 -4 40 1 47 4 7 3 19 -3 26 -7 9 -7 13 0 13 6 0 7 13 2 34 -4 19
-4 40 1 47 4 7 3 19 -3 26 -7 9 -7 13 0 13 6 0 7 13 2 34 -4 19 -4 40 1 47 4
7 3 19 -3 26 -6 7 -7 13 -2 13 5 0 9 16 9 35 0 19 -3 35 -7 35 -4 0 -3 11 2
24 5 15 5 27 -3 35 -8 8 -8 11 2 11 10 0 11 3 2 13 -6 8 -8 17 -4 20 9 10 10
57 1 57 -4 0 -3 11 2 24 5 15 5 27 -3 35 -8 8 -8 11 2 11 10 0 11 3 2 13 -6 8
-8 17 -4 20 9 10 10 57 1 57 -4 0 -3 11 2 24 5 15 5 27 -3 35 -8 8 -8 11 2 11
10 0 11 3 2 13 -6 8 -8 17 -4 20 9 10 10 57 1 57 -4 0 -3 11 2 24 5 15 5 27
-3 35 -8 8 -8 11 2 11 10 0 11 3 2 13 -6 8 -8 17 -4 20 9 10 10 57 1 57 -4 0
-3 11 2 24 5 15 5 27 -3 35 -8 8 -8 11 2 11 10 0 11 3 2 13 -6 8 -8 17 -4 20
9 10 10 57 1 57 -4 0 -3 11 2 24 5 15 5 27 -3 35 -8 8 -8 11 2 11 10 0 11 3 2
13 -6 8 -8 17 -4 20 9 10 10 57 1 57 -4 0 -3 11 2 24 5 15 5 27 -3 35 -8 8 -8
11 2 11 10 0 11 3 2 13 -6 8 -8 17 -4 20 9 10 10 57 1 57 -4 0 -3 11 2 24 5
15 5 27 -3 35 -8 8 -8 11 2 11 10 0 11 3 2 13 -6 8 -8 17 -4 20 9 10 10 57 1
57 -4 0 -3 11 2 24 5 15 5 27 -3 35 -8 8 -8 11 2 11 10 0 11 3 2 13 -6 8 -8
17 -4 20 9 10 10 57 1 57 -4 0 -3 11 2 24 5 15 5 27 -3 35 -8 8 -8 11 2 11 10
0 11 3 2 13 -6 8 -8 17 -4 20 9 10 10 57 1 57 -4 0 -3 11 2 24 5 15 5 27 -3
35 -8 8 -8 11 2 11 10 0 11 3 2 13 -6 8 -8 17 -4 20 9 10 10 57 1 57 -4 0 -3
11 2 24 5 15 5 27 -3 35 -8 8 -8 11 2 11 10 0 11 3 2 13 -6 8 -8 17 -4 20 9
10 10 57 1 57 -4 0 -3 11 2 24 5 15 5 27 -3 35 -8 8 -8 11 2 11 10 0 11 3 2
13 -6 8 -8 17 -4 20 9 10 10 57 1 57 -4 0 -3 11 2 24 5 15 5 27 -3 35 -8 8 -8
11 2 11 10 0 11 3 2 13 -6 8 -8 17 -4 20 9 10 10 57 1 57 -4 0 -3 11 2 24 5
15 5 27 -3 35 -8 8 -8 11 2 11 10 0 11 3 2 13 -6 8 -8 17 -4 20 9 10 10 57 1
57 -4 0 -3 11 2 24 5 15 5 27 -3 35 -8 8 -8 11 2 11 10 0 11 3 2 13 -6 8 -8
17 -4 20 9 10 10 57 1 57 -4 0 -3 11 2 24 5 15 5 27 -3 35 -8 8 -8 11 2 11 10
0 11 3 2 13 -6 8 -8 17 -4 20 9 10 10 57 1 57 -4 0 -3 11 2 24 5 15 5 27 -3
35 -8 8 -8 11 2 11 10 0 11 3 2 13 -6 8 -8 17 -4 20 9 10 10 57 1 57 -4 0 -3
11 2 24 5 15 5 27 -3 35 -8 8 -8 11 2 11 10 0 11 3 2 13 -6 8 -8 17 -4 20 9
10 10 57 1 57 -4 0 -3 11 2 24 5 15 5 27 -3 35 -8 8 -8 11 2 11 10 0 11 3 2
13 -6 8 -8 17 -4 20 9 10 10 57 1 57 -4 0 -3 11 2 24 5 15 5 27 -3 35 -8 8 -8
11 2 11 10 0 11 3 2 13 -6 8 -8 17 -4 20 9 10 10 57 1 57 -4 0 -3 11 2 24 5
15 5 27 -3 35 -8 8 -8 11 2 11 10 0 11 3 2 13 -6 8 -8 17 -4 20 9 10 10 57 1
57 -4 0 -3 11 2 24 5 15 5 27 -3 35 -8 8 -8 11 2 11 10 0 11 3 2 13 -6 8 -8
17 -4 20 9 10 10 57 1 57 -4 0 -3 11 2 24 5 15 5 27 -3 35 -8 8 -8 11 2 11 10
0 11 3 2 13 -6 8 -8 17 -4 20 9 10 10 57 1 57 -4 0 -3 11 2 24 5 15 5 27 -3
35 -8 8 -8 11 2 11 10 0 11 3 2 13 -6 8 -8 17 -4 20 9 10 10 57 1 57 -4 0 -3
11 2 24 5 15 5 27 -3 35 -8 8 -8 11 2 11 10 0 11 3 2 13 -6 8 -8 17 -4 20 9
10 10 97 1 97 -4 0 -3 11 2 25 5 13 6 27 1 29 -5 3 -7 21 -5 40 3 22 -1 40
-12 50 -10 10 -11 16 -3 16 8 0 9 3 0 13 -6 8 -8 17 -4 20 3 4 1 7 -6 7 -8 0
-10 7 -6 21 5 15 4 19 -4 15 -6 -4 -11 -2 -11 5 0 6 -8 18 -17 26 -10 8 -12
11 -5 8 11 -6 11 -3 1 13 -7 12 -17 19 -21 16 -4 -3 -5 3 -1 12 5 13 3 16 -10
11 -12 -4 -15 -1 -12 14 2 11 0 17 -4 14 -10 -6 -51 28 -51 43 0 7 -7 9 -17 5
-11 -4 -14 -3 -9 5 5 8 0 12 -12 12 -11 0 -25 7 -32 15 -7 8 -16 12 -21 9 -5
-3 -9 -1 -9 4 0 6 -7 13 -16 16 -10 4 -13 2 -9 -7 4 -6 1 -5 -7 3 -14 17 -32
20 -44 7 -4 -4 -14 -1 -23 6 -20 17 -51 29 -51 19 0 -9 -53 -8 -68 2 -7 4 -12
3 -12 -3 0 -6 -11 -6 -30 -1 -16 5 -30 6 -30 2 0 -4 -43 -5 -96 -2 -53 3 -101
2 -107 -2 -6 -3 -21 -2 -34 3 -14 5 -22 5 -19 0z"/>
<path d="M8124 8521 c3 -5 -3 -11 -14 -14 -11 -3 -18 -1 -14 4 3 5 0 9 -6 9
-6 0 -13 -7 -17 -16 -6 -15 -8 -15 -20 2 -7 10 -13 13 -13 8 0 -15 -59 -46
-75 -40 -8 3 -14 0 -12 -7 1 -7 -4 -11 -10 -9 -7 1 -13 -3 -13 -9 0 -5 -4 -8
-9 -5 -5 3 -12 -1 -15 -10 -3 -8 -11 -12 -17 -8 -7 4 -10 3 -7 -2 3 -5 0 -15
-8 -22 -8 -7 -14 -9 -14 -5 0 4 -5 0 -11 -10 -6 -10 -15 -14 -22 -10 -7 4 -5
-2 3 -12 9 -11 10 -16 3 -11 -8 4 -13 1 -13 -8 0 -9 -6 -15 -12 -13 -7 1 -12
-4 -10 -10 1 -7 -3 -13 -10 -13 -6 0 -9 -3 -5 -6 3 -4 -1 -13 -9 -21 -8 -8
-12 -19 -9 -24 4 -5 1 -9 -5 -9 -6 0 -9 -4 -6 -9 3 -5 0 -11 -8 -14 -9 -3 -12
-15 -9 -31 4 -18 1 -26 -8 -26 -11 0 -11 -2 1 -10 10 -6 11 -10 3 -10 -7 0
-12 -3 -12 -7 1 -5 0 -10 -1 -13 -7 -18 -5 -50 3 -50 5 0 4 -6 -2 -13 -6 -8
-8 -17 -4 -21 9 -9 11 -46 3 -46 -8 0 -6 -32 3 -47 4 -6 3 -14 -3 -18 -6 -4
-7 -12 -3 -18 11 -17 13 -37 4 -37 -9 0 -8 -31 3 -48 4 -7 2 -12 -4 -12 -6 0
-8 -5 -4 -12 10 -16 13 -48 4 -48 -8 0 -6 -32 3 -47 4 -6 3 -14 -3 -18 -6 -4
-7 -12 -3 -18 11 -17 13 -37 4 -37 -9 0 -8 -31 3 -48 4 -7 2 -12 -4 -12 -6 0
-8 -5 -4 -12 10 -16 13 -48 4 -48 -8 0 -6 -32 3 -47 4 -6 3 -14 -3 -18 -6 -4
-7 -12 -3 -18 11 -17 13 -37 4 -37 -9 0 -8 -31 3 -48 4 -7 2 -12 -4 -12 -6 0
-8 -5 -4 -12 10 -16 13 -48 4 -48 -8 0 -6 -32 3 -47 4 -6 3 -14 -3 -18 -6 -4
-7 -12 -3 -18 11 -17 13 -37 4 -37 -9 0 -8 -31 3 -48 4 -7 2 -12 -4 -12 -6 0
-8 -5 -4 -12 10 -16 13 -48 4 -48 -8 0 -6 -32 3 -47 4 -6 3 -14 -3 -18 -6 -4
-7 -12 -3 -18 11 -17 13 -37 4 -37 -9 0 -8 -31 3 -48 4 -7 2 -12 -4 -12 -6 0
-8 -5 -4 -12 10 -16 13 -48 4 -48 -8 0 -6 -32 3 -47 4 -6 3 -14 -3 -18 -6 -4
-7 -12 -3 -18 11 -17 13 -37 4 -37 -9 0 -8 -31 3 -48 4 -7 2 -12 -4 -12 -6 0
-8 -5 -4 -12 10 -16 13 -48 4 -48 -8 0 -6 -32 3 -47 4 -6 3 -14 -3 -18 -6 -4
-7 -12 -3 -18 11 -17 13 -37 4 -37 -9 0 -8 -31 3 -48 4 -7 2 -12 -4 -12 -6 0
-8 -5 -4 -12 10 -16 13 -48 4 -48 -8 0 -6 -32 3 -47 4 -6 3 -14 -3 -18 -6 -4
-7 -12 -3 -18 11 -17 13 -37 4 -37 -9 0 -8 -31 3 -48 4 -7 2 -12 -4 -12 -6 0
-8 -5 -4 -12 10 -16 13 -48 4 -48 -8 0 -6 -32 3 -47 4 -6 3 -14 -3 -18 -6 -4
-7 -12 -3 -18 11 -17 13 -37 4 -37 -9 0 -8 -31 3 -48 4 -7 2 -12 -4 -12 -6 0
-8 -5 -4 -12 10 -16 13 -48 4 -48 -8 0 -6 -32 3 -47 4 -6 3 -14 -3 -18 -6 -4
-7 -12 -3 -18 11 -17 13 -37 4 -37 -9 0 -8 -31 3 -48 4 -7 2 -12 -4 -12 -6 0
-8 -5 -4 -12 10 -16 13 -48 4 -48 -8 0 -6 -32 3 -47 4 -6 3 -14 -3 -18 -6 -4
-7 -12 -3 -18 11 -17 13 -37 4 -37 -9 0 -8 -31 3 -48 4 -7 2 -12 -4 -12 -6 0
-8 -5 -4 -12 10 -16 13 -48 4 -48 -8 0 -6 -32 3 -47 4 -6 3 -14 -3 -18 -6 -4
-7 -12 -3 -18 11 -17 13 -37 4 -37 -9 0 -8 -31 3 -48 4 -7 2 -12 -4 -12 -6 0
-8 -5 -4 -12 10 -16 13 -48 4 -48 -8 0 -6 -32 3 -47 4 -6 3 -14 -3 -18 -6 -4
-7 -12 -3 -18 11 -17 13 -37 4 -37 -9 0 -8 -31 3 -48 4 -7 2 -12 -4 -12 -6 0
-8 -5 -4 -12 10 -16 13 -48 4 -48 -8 0 -6 -32 3 -47 4 -6 3 -14 -3 -18 -6 -4
-7 -12 -3 -18 11 -17 13 -37 4 -37 -9 0 -8 -31 3 -48 4 -7 2 -12 -4 -12 -6 0
-8 -5 -4 -12 10 -16 13 -48 4 -48 -8 0 -6 -32 3 -47 4 -6 3 -14 -3 -18 -6 -4
-7 -12 -3 -18 11 -17 13 -37 4 -37 -9 0 -8 -31 3 -48 4 -7 2 -12 -4 -12 -6 0
-8 -5 -4 -12 10 -16 13 -48 4 -48 -8 0 -6 -32 3 -47 4 -6 3 -14 -3 -18 -6 -4
-7 -12 -3 -18 11 -17 13 -37 4 -37 -9 0 -8 -31 3 -48 4 -7 2 -12 -4 -12 -6 0
-8 -5 -4 -12 10 -16 13 -48 4 -48 -8 0 -6 -32 3 -47 4 -6 3 -14 -3 -18 -6 -4
-7 -12 -3 -18 11 -17 13 -37 4 -37 -9 0 -8 -31 3 -48 4 -7 2 -12 -4 -12 -6 0
-8 -5 -4 -12 10 -16 13 -48 4 -48 -8 0 -6 -37 3 -46 4 -4 2 -13 -4 -20 -6 -8
-6 -14 0 -18 6 -4 6 -18 1 -36 -5 -18 -5 -32 1 -36 6 -4 6 -11 -2 -20 -9 -11
-9 -14 0 -14 8 0 9 -5 1 -19 -6 -12 -6 -22 -1 -25 5 -3 5 -21 1 -41 -5 -20 -4
-38 2 -41 5 -3 4 -11 -3 -20 -9 -11 -9 -14 0 -14 8 0 9 -5 1 -19 -6 -12 -6
-22 -1 -25 5 -3 5 -21 1 -41 -5 -20 -4 -38 2 -41 5 -3 4 -11 -3 -20 -9 -11 -9
-14 0 -14 8 0 9 -5 1 -19 -6 -12 -6 -22 -1 -25 5 -3 5 -21 1 -41 -5 -20 -4
-38 2 -41 5 -3 4 -11 -3 -20 -9 -11 -9 -14 0 -14 8 0 9 -5 1 -19 -6 -12 -6
-22 -1 -25 5 -3 5 -21 1 -41 -5 -20 -4 -38 2 -41 5 -3 4 -11 -3 -20 -9 -11 -9
-14 0 -14 8 0 9 -5 1 -19 -6 -12 -6 -22 -1 -25 5 -3 5 -21 1 -41 -5 -20 -4
-38 2 -41 5 -3 4 -11 -3 -20 -9 -11 -9 -14 0 -14 8 0 9 -5 1 -19 -6 -12 -6
-22 -1 -25 5 -3 5 -21 1 -41 -5 -20 -4 -38 2 -41 5 -3 4 -11 -3 -20 -9 -11 -9
-14 0 -14 8 0 9 -5 1 -19 -6 -12 -6 -22 -1 -25 5 -3 5 -21 1 -41 -5 -20 -4
-38 2 -41 5 -3 4 -11 -3 -20 -9 -11 -9 -14 0 -14 8 0 9 -5 1 -19 -6 -12 -6
-22 -1 -25 5 -3 5 -21 1 -41 -5 -20 -4 -38 2 -41 5 -3 4 -11 -3 -20 -9 -11 -9
-14 0 -14 8 0 9 -5 1 -19 -6 -12 -6 -22 -1 -25 5 -3 5 -21 1 -41 -5 -20 -4
-38 2 -41 5 -3 4 -11 -3 -20 -9 -11 -9 -14 0 -14 8 0 9 -5 1 -19 -6 -12 -6
-22 -1 -25 5 -3 5 -21 1 -41 -5 -20 -4 -38 2 -41 5 -3 4 -11 -3 -20 -9 -11 -9
-14 0 -14 8 0 9 -5 1 -19 -6 -12 -6 -22 -1 -25 5 -3 5 -21 1 -41 -5 -20 -4
-38 2 -41 5 -3 4 -11 -3 -20 -9 -11 -9 -14 0 -14 8 0 9 -5 1 -19 -6 -12 -6
-22 -1 -25 5 -3 5 -21 1 -41 -5 -20 -4 -38 2 -41 5 -3 4 -11 -3 -20 -9 -11 -9
-14 0 -14 8 0 9 -5 1 -19 -6 -12 -6 -22 -1 -25 5 -3 5 -21 1 -41 -5 -20 -4
-38 2 -41 5 -3 4 -11 -3 -20 -9 -11 -9 -14 0 -14 8 0 9 -5 1 -19 -6 -12 -6
-22 -1 -25 5 -3 5 -21 1 -41 -5 -20 -4 -38 2 -41 5 -3 4 -11 -3 -20 -9 -11 -9
-14 0 -14 8 0 9 -5 1 -19 -6 -12 -6 -22 -1 -25 5 -3 5 -21 1 -41 -5 -20 -4
-38 2 -41 5 -3 4 -11 -3 -20 -9 -11 -9 -14 0 -14 8 0 9 -5 1 -19 -7 -13 -7
-22 0 -26 7 -4 7 -12 0 -25 -7 -13 -7 -21 0 -25 8 -5 8 -11 1 -19 -6 -7 -8
-16 -4 -20 10 -10 13 -36 4 -36 -9 0 -8 -31 3 -48 4 -7 2 -12 -4 -12 -6 0 -8
-5 -4 -12 10 -16 13 -48 4 -48 -8 0 -6 -32 3 -47 4 -6 3 -14 -3 -18 -6 -4 -7
-12 -3 -18 11 -17 13 -37 4 -37 -7 0 -7 -40 -1 -47 7 -8 5 -30 -2 -46 -6 -11
-5 -17 3 -17 7 0 9 -3 6 -7 -4 -3 -1 -13 6 -21 10 -13 9 -15 -7 -8 -19 7 -19
6 -3 -12 10 -11 17 -23 15 -28 -1 -5 6 -24 16 -43 12 -23 14 -31 4 -26 -7 3
-4 -1 6 -9 11 -9 17 -19 13 -22 -7 -7 15 -34 25 -28 3 2 4 -6 1 -18 -3 -17 -2
-19 5 -10 7 11 11 7 16 -13 4 -15 10 -25 13 -22 7 8 33 -18 33 -33 0 -6 4 -9
9 -6 5 3 11 -1 15 -9 3 -9 12 -12 22 -8 10 4 15 2 11 -3 -3 -6 15 -22 39 -37
25 -15 42 -22 38 -15 -6 9 -3 9 9 -1 9 -7 17 -10 17 -5 0 5 5 2 10 -6 9 -13
10 -13 10 0 1 12 2 12 10 -2 9 -15 37 -17 266 -18 205 0 254 2 248 12 -5 8 -1
7 11 -2 15 -12 17 -12 10 -1 -6 11 -4 13 8 8 10 -3 17 -2 17 3 0 5 7 7 15 4
10 -4 15 0 16 12 0 11 3 14 5 7 7 -16 34 -5 57 21 10 12 16 15 12 8 -6 -11 -3
-11 13 -1 12 7 18 17 15 23 -4 5 1 7 11 3 14 -6 17 -3 12 8 -3 9 -2 13 4 10 5
-3 20 4 32 16 13 12 16 19 8 14 -8 -4 1 7 20 25 19 18 28 29 20 25 -9 -4 -9
-1 3 8 9 8 17 19 17 26 0 6 7 14 15 17 11 5 12 10 4 27 -9 16 -9 19 3 14 14
-5 16 -1 20 41 0 9 6 20 12 24 8 6 7 11 -3 17 -9 6 -10 11 -2 15 17 11 16
7337 -1 7355 -10 11 -10 13 0 7 16 -10 15 9 -2 23 -7 6 -12 22 -10 36 1 14 -2
25 -8 25 -5 0 -6 9 -3 21 5 15 4 19 -4 15 -6 -4 -11 -2 -11 5 0 6 -8 18 -17
26 -10 8 -12 11 -5 8 11 -6 11 -3 1 13 -7 12 -17 19 -21 16 -4 -3 -5 3 -1 12
5 13 3 16 -10 11 -12 -4 -15 -1 -12 14 2 11 0 17 -4 14 -10 -6 -51 28 -51 43
0 7 -7 9 -17 5 -11 -4 -14 -3 -9 5 5 8 0 12 -12 12 -11 0 -25 7 -32 15 -7 8
-16 12 -21 9 -5 -3 -9 -1 -9 4 0 6 -7 13 -16 16 -10 4 -13 2 -9 -7 4 -6 1 -5
-7 3 -14 17 -32 20 -44 7 -4 -4 -14 -1 -23 6 -20 17 -51 29 -51 19 0 -9 -53
-8 -68 2 -7 4 -12 3 -12 -3 0 -6 -11 -6 -30 -1 -16 5 -30 6 -30 2 0 -4 -43 -5
-96 -2 -53 3 -101 2 -107 -2 -6 -3 -21 -2 -34 3 -14 5 -22 5 -19 0z"/>
<path d="M2815 8510 c3 -5 8 -10 11 -10 2 0 4 5 4 10 0 6 -5 10 -11 10 -5 0
-7 -4 -4 -10z"/>
<path d="M4735 8510 c3 -5 8 -10 11 -10 2 0 4 5 4 10 0 6 -5 10 -11 10 -5 0
-7 -4 -4 -10z"/>
<path d="M8575 8510 c3 -5 8 -10 11 -10 2 0 4 5 4 10 0 6 -5 10 -11 10 -5 0
-7 -4 -4 -10z"/>
<path d="M6190 5821 c0 -7 -6 -11 -15 -7 -8 3 -15 0 -15 -7 0 -9 -3 -8 -9 1
-6 11 -10 10 -15 -3 -5 -15 -9 -15 -23 -4 -9 8 -14 9 -11 4 4 -6 -5 -15 -18
-22 -14 -6 -24 -7 -24 -2 0 6 -6 4 -14 -3 -8 -7 -11 -17 -8 -23 3 -5 -3 -3
-14 5 -10 8 -16 11 -12 6 8 -10 -14 -36 -24 -29 -5 2 -8 -1 -8 -6 0 -6 -7 -11
-16 -11 -8 0 -13 -4 -10 -9 3 -4 -6 -13 -19 -19 -14 -7 -24 -15 -23 -20 3 -7
-10 -25 -47 -64 -12 -13 -14 -18 -5 -14 8 4 4 -2 -9 -13 -13 -12 -18 -21 -12
-21 5 0 1 -17 -11 -37 -15 -24 -17 -34 -8 -28 12 7 13 6 3 -6 -7 -9 -14 -33
-15 -55 -2 -21 -7 -42 -12 -45 -5 -4 -5 -13 0 -20 10 -17 13 -49 4 -49 -9 0
-6 -32 4 -48 4 -7 2 -12 -4 -12 -6 0 -8 -5 -4 -12 10 -16 13 -48 4 -48 -8 0
-6 -32 3 -47 4 -6 3 -15 -3 -18 -8 -5 -8 -11 0 -20 8 -10 8 -15 0 -20 -8 -5
-8 -10 0 -20 8 -9 8 -15 0 -20 -6 -3 -7 -12 -3 -18 11 -17 13 -37 4 -37 -9 0
-8 -31 3 -48 4 -7 2 -12 -4 -12 -6 0 -8 -5 -4 -12 10 -16 13 -48 4 -48 -8 0
-6 -32 3 -47 4 -6 3 -14 -3 -18 -6 -4 -7 -12 -3 -18 11 -17 13 -37 4 -37 -9 0
-8 -31 3 -48 4 -7 2 -12 -4 -12 -6 0 -8 -5 -4 -12 10 -16 13 -48 4 -48 -8 0
-6 -32 3 -47 4 -6 3 -14 -3 -18 -6 -4 -7 -12 -3 -18 11 -17 13 -37 4 -37 -9 0
-8 -31 3 -48 4 -7 2 -12 -4 -12 -6 0 -8 -5 -4 -12 10 -16 13 -48 4 -48 -8 0
-6 -32 3 -47 4 -6 3 -14 -3 -18 -6 -4 -7 -12 -3 -18 11 -17 13 -37 4 -37 -9 0
-8 -31 3 -48 4 -7 2 -12 -4 -12 -6 0 -8 -5 -4 -12 10 -16 13 -48 4 -48 -8 0
-6 -32 3 -47 4 -6 3 -14 -3 -18 -6 -4 -7 -12 -3 -18 11 -17 13 -37 4 -37 -9 0
-8 -31 3 -48 4 -7 2 -12 -4 -12 -6 0 -8 -5 -4 -12 10 -16 13 -48 4 -48 -8 0
-6 -37 3 -46 4 -4 2 -13 -4 -20 -7 -8 -7 -14 0 -18 7 -5 7 -15 1 -32 -7 -16
-7 -23 0 -19 9 5 6 -34 -5 -71 -2 -6 0 -16 5 -23 4 -7 4 -28 0 -47 -4 -19 -4
-36 0 -39 5 -3 5 -18 0 -34 -4 -16 -5 -32 -2 -36 3 -3 7 -16 9 -28 1 -12 4
-37 6 -56 3 -22 11 -37 23 -42 18 -7 18 -8 -1 -9 -18 -1 -19 -1 -2 -11 9 -5
17 -17 17 -24 0 -8 5 -15 11 -15 5 0 7 -4 4 -10 -3 -5 -1 -10 6 -10 7 0 9 -3
6 -6 -4 -4 3 -15 15 -25 11 -11 17 -19 12 -20 -5 0 1 -4 14 -9 12 -5 27 -20
32 -32 5 -13 9 -19 9 -15 1 8 16 -3 53 -38 11 -11 17 -13 13 -5 -6 10 -1 8 13
-4 12 -11 22 -15 22 -10 0 5 4 4 8 -1 10 -15 65 -38 56 -24 -3 6 6 3 22 -7 21
-14 26 -15 19 -4 -7 12 -6 13 6 4 8 -6 36 -12 63 -13 26 -1 52 -4 57 -7 5 -3
9 0 9 7 0 8 4 8 13 1 7 -6 19 -7 26 -3 7 5 28 5 47 1 21 -5 34 -4 34 2 0 7 4
7 13 0 8 -7 18 -7 27 -2 9 5 19 5 27 -2 9 -7 13 -7 13 2 0 9 3 10 13 1 8 -6
16 -8 19 -5 11 10 78 12 72 2 -4 -6 2 -5 14 1 12 6 32 12 46 13 15 1 26 5 26
9 0 3 10 5 23 4 23 -2 62 19 85 45 11 12 12 12 6 1 -4 -9 6 -5 24 8 18 12 29
27 26 33 -4 7 -2 8 4 4 7 -4 22 3 34 15 13 12 16 18 8 14 -13 -7 -13 -6 0 6 8
8 20 21 28 29 10 11 12 11 6 1 -4 -9 -3 -12 4 -8 5 4 8 16 5 27 -3 11 0 20 6
20 6 0 11 6 11 14 0 8 8 17 17 20 15 6 15 8 3 16 -13 8 -13 10 1 10 11 0 15 9
14 30 -1 16 2 27 7 24 4 -3 8 6 8 20 0 14 4 27 10 31 6 4 6 15 0 30 -7 18 -6
25 3 25 7 0 8 3 2 8 -12 9 -14 72 -1 72 4 0 3 6 -3 13 -6 8 -8 16 -5 20 8 8
12 57 4 57 -4 0 -7 7 -7 15 0 8 5 15 10 15 5 0 5 5 -1 13 -6 7 -8 18 -4 24 4
6 5 162 2 347 -3 188 -1 336 4 336 5 0 3 6 -3 13 -6 8 -8 16 -5 20 8 8 12 57
4 57 -4 0 -7 7 -7 15 0 8 5 15 10 15 5 0 4 6 -2 13 -6 8 -8 16 -5 20 8 8 12
57 4 57 -4 0 -7 7 -7 15 0 8 5 15 10 15 5 0 4 6 -2 13 -6 8 -8 16 -5 20 8 8
12 57 4 57 -4 0 -7 7 -7 15 0 8 5 15 10 15 5 0 4 6 -2 13 -6 8 -8 16 -5 20 8
8 12 57 4 57 -4 0 -7 7 -7 15 0 8 5 15 10 15 5 0 4 6 -2 13 -6 8 -8 16 -5 20
8 8 12 57 4 57 -4 0 -7 7 -7 15 0 8 5 15 10 15 5 0 4 6 -2 13 -6 8 -8 16 -5
20 8 8 12 57 4 57 -4 0 -7 7 -7 15 0 8 5 15 10 15 5 0 4 6 -2 13 -6 8 -8 16
-5 20 8 8 12 57 4 57 -4 0 -7 7 -7 15 0 8 5 15 10 15 5 0 5 5 -1 13 -7 8 -7
18 -2 27 5 8 3 27 -5 47 -10 23 -11 35 -3 39 7 5 8 2 3 -6 -5 -8 -4 -11 3 -6
6 4 9 13 6 21 -4 8 -10 12 -15 9 -5 -3 -6 2 -3 10 3 9 2 16 -3 16 -13 0 -12
30 1 31 6 0 1 4 -11 9 -14 6 -21 15 -17 24 3 8 0 17 -5 21 -6 3 -8 11 -5 17 5
7 1 9 -8 5 -12 -4 -15 0 -13 18 1 14 -2 22 -6 19 -9 -5 -13 11 -10 30 1 5 -6
3 -15 -5 -10 -8 -15 -9 -11 -2 9 15 -21 45 -36 36 -7 -3 -9 -3 -5 1 9 11 -43
62 -59 58 -7 -2 -13 1 -13 6 0 5 -11 14 -24 20 -19 8 -26 8 -30 -1 -2 -7 -5
-4 -5 6 -1 10 -5 16 -10 12 -5 -3 -12 -1 -15 4 -3 5 -16 7 -28 3 -13 -3 -19
-1 -15 6 8 12 -11 11 -32 -2 -9 -6 -12 -5 -7 2 3 6 2 13 -4 17 -5 3 -10 1 -10
-5 0 -7 -6 -8 -19 0 -14 7 -22 7 -26 0 -5 -8 -11 -8 -20 0 -9 8 -15 8 -20 0
-3 -6 -12 -7 -18 -3 -17 10 -47 11 -47 1 0 -5 -9 -4 -20 2 -11 6 -20 7 -20 2
0 -10 -36 -9 -46 1 -4 4 -13 2 -20 -4 -8 -7 -14 -7 -19 1 -5 8 -11 8 -21 -1
-11 -9 -14 -9 -14 1 0 10 -3 10 -14 1 -10 -8 -16 -9 -21 -1 -4 7 -13 6 -28 -2
-26 -14 -27 -14 -38 4 -7 11 -9 11 -9 -1z"/>
<path d="M5910 3256 c0 -2 7 -7 16 -10 8 -3 12 -2 9 4 -6 10 -25 14 -25 6z"/>
<path d="M2350 3101 c0 -7 -6 -11 -14 -8 -8 3 -17 1 -20 -6 -3 -8 -5 -7 -5 2
-1 11 -5 10 -16 -5 -13 -16 -16 -17 -25 -4 -6 10 -10 11 -10 3 0 -7 -7 -13
-16 -13 -8 0 -12 -4 -9 -10 3 -6 -1 -7 -9 -4 -9 3 -16 1 -16 -4 0 -6 -9 -9
-19 -7 -15 3 -18 -1 -14 -12 4 -11 2 -14 -5 -9 -6 4 -21 -3 -32 -14 -11 -11
-25 -18 -31 -15 -5 4 -9 3 -8 -2 4 -21 -2 -34 -13 -27 -8 5 -9 2 -5 -10 5 -13
3 -17 -6 -13 -9 3 -19 -7 -27 -28 -8 -20 -18 -31 -26 -28 -9 3 -12 -2 -9 -15
2 -12 -3 -23 -11 -26 -9 -3 -12 -11 -9 -17 4 -5 -1 -17 -11 -25 -18 -15 -18
-15 0 -9 19 6 19 5 2 -14 -10 -11 -15 -25 -11 -30 3 -6 -2 -11 -12 -11 -17 -1
-17 -1 0 -11 13 -8 15 -14 7 -30 -6 -10 -7 -19 -3 -19 4 0 2 -4 -6 -9 -8 -5
-10 -14 -5 -22 10 -17 10 -51 0 -67 -4 -6 -3 -12 1 -12 10 0 10 -41 -1 -58 -4
-7 -4 -18 0 -24 10 -16 10 -50 0 -66 -4 -6 -3 -12 2 -12 6 0 7 -14 2 -35 -4
-19 -4 -35 1 -35 5 0 4 -11 -1 -25 -6 -15 -6 -25 0 -25 5 0 5 -12 0 -30 -5
-16 -5 -30 -1 -30 9 0 8 -31 -3 -48 -4 -6 -3 -12 2 -12 6 0 7 -14 2 -35 -4
-19 -4 -35 1 -35 5 0 4 -11 -1 -25 -6 -15 -6 -25 0 -25 5 0 5 -12 0 -30 -5
-16 -5 -30 -1 -30 9 0 8 -31 -3 -48 -4 -7 -2 -12 4 -12 8 0 8 -6 0 -20 -6 -12
-7 -20 -1 -20 6 0 6 -11 1 -30 -5 -16 -5 -30 -1 -30 9 0 8 -31 -3 -48 -4 -6
-3 -12 2 -12 6 0 7 -14 2 -35 -4 -19 -4 -35 1 -35 5 0 4 -11 -1 -25 -6 -15 -6
-25 0 -25 5 0 5 -12 0 -30 -5 -16 -5 -30 -1 -30 9 0 8 -31 -3 -48 -4 -6 -3
-12 2 -12 6 0 7 -14 2 -35 -4 -19 -4 -35 1 -35 5 0 4 -11 -1 -25 -6 -15 -6
-25 0 -25 5 0 5 -12 0 -30 -5 -16 -5 -30 -1 -30 9 0 8 -31 -3 -48 -4 -7 -2
-12 4 -12 7 0 8 -6 0 -19 -7 -14 -7 -22 0 -26 8 -5 8 -11 0 -20 -6 -7 -7 -16
-2 -19 10 -6 9 -36 -2 -54 -4 -6 -4 -18 0 -24 10 -16 10 -50 0 -66 -4 -6 -3
-12 2 -12 6 0 7 -14 2 -35 -4 -19 -4 -35 1 -35 5 0 4 -11 -1 -25 -6 -15 -6
-25 0 -25 5 0 5 -12 0 -30 -5 -17 -5 -30 0 -30 9 0 6 -33 -5 -50 -3 -6 -1 -10
6 -10 7 0 9 -3 6 -7 -4 -3 -1 -13 6 -21 9 -13 9 -14 0 -8 -7 4 -13 3 -13 -3 0
-5 5 -13 11 -16 5 -4 8 -12 6 -18 -2 -7 5 -27 15 -45 11 -21 14 -31 6 -27 -7
4 -5 0 5 -8 11 -9 15 -21 10 -32 -4 -13 -3 -16 5 -11 7 4 12 2 12 -4 0 -6 4
-9 9 -5 6 3 8 -4 6 -15 -2 -11 0 -18 5 -15 5 3 11 -4 15 -15 4 -11 11 -18 16
-15 5 4 9 -1 9 -10 0 -9 5 -13 10 -10 6 3 10 -1 10 -10 0 -9 4 -14 9 -11 5 3
11 -1 15 -9 3 -9 12 -12 22 -8 10 4 15 2 11 -3 -3 -6 15 -22 39 -37 25 -15 42
-22 38 -15 -6 9 -3 9 9 -1 9 -7 17 -10 17 -5 0 5 5 2 10 -6 9 -13 10 -13 10 0
1 12 2 12 10 -2 9 -15 37 -17 260 -17 195 0 249 2 244 12 -5 9 -4 9 6 0 11
-10 16 -9 26 5 9 11 13 13 14 4 0 -10 5 -10 23 -1 12 7 25 17 29 23 5 8 8 7 8
-1 0 -7 7 -10 15 -7 13 5 13 9 3 22 -11 13 -10 14 10 3 15 -8 22 -8 22 -1 0 6
5 8 10 5 6 -3 10 1 10 9 0 9 9 16 21 16 11 0 18 3 16 8 -2 4 4 15 15 25 10 9
18 14 18 10 0 -5 9 7 20 25 11 18 25 30 30 27 6 -3 7 1 4 9 -3 9 -1 16 5 16 6
0 11 7 11 16 0 8 4 12 10 9 6 -3 7 1 4 9 -4 9 -1 16 6 16 9 0 9 4 -1 17 -10
11 -10 14 -1 9 6 -4 13 -4 13 1 1 4 3 19 6 33 2 14 5 33 6 42 1 14 4 15 16 5
12 -10 13 -9 7 1 -12 20 -14 72 -3 72 5 0 5 6 -1 13 -6 7 -7 19 -3 26 5 7 5
28 1 46 -5 21 -3 38 3 44 8 8 7 11 -1 11 -9 0 -10 5 -4 16 5 9 6 31 2 50 -5
20 -3 37 3 43 8 8 7 11 -1 11 -9 0 -10 5 -4 16 5 9 6 31 2 50 -5 20 -3 37 3
43 8 8 7 11 -1 11 -9 0 -10 5 -4 16 5 9 6 31 2 50 -5 20 -3 37 3 43 8 8 7 11
-1 11 -9 0 -10 5 -4 16 5 9 6 31 2 50 -5 20 -3 37 3 43 8 8 7 11 -1 11 -9 0
-10 5 -4 16 5 9 6 31 2 50 -5 20 -3 37 3 43 8 8 7 11 -1 11 -9 0 -10 5 -4 16
5 9 6 31 2 50 -5 20 -3 37 3 43 8 8 7 11 -1 11 -9 0 -10 5 -4 16 5 9 6 31 2
50 -5 20 -3 37 3 43 8 8 7 11 -1 11 -9 0 -10 5 -4 15 4 9 5 40 2 70 -4 32 -2
59 4 65 7 7 6 10 -2 10 -9 0 -10 5 -4 16 5 9 6 31 2 50 -5 20 -3 37 3 43 8 8
7 11 -1 11 -9 0 -10 5 -4 16 5 9 6 31 2 50 -5 20 -3 37 3 43 8 8 7 11 -1 11
-9 0 -10 5 -4 16 5 9 6 31 2 50 -5 20 -3 37 3 43 8 8 7 11 -1 11 -9 0 -10 5
-4 16 5 9 6 31 2 50 -5 20 -3 37 3 43 8 8 7 11 -1 11 -9 0 -10 5 -4 15 4 9 5
40 2 70 -4 32 -2 59 4 65 7 7 6 10 -2 10 -9 0 -10 5 -3 18 6 12 5 28 -5 50
-12 28 -11 34 1 38 8 4 12 10 9 15 -3 5 -10 6 -16 3 -7 -5 -8 -2 -3 6 4 7 2
16 -6 20 -10 7 -10 12 2 26 8 10 9 15 3 11 -7 -4 -14 3 -18 19 -4 14 -18 37
-31 50 -13 13 -19 24 -12 24 7 0 4 5 -6 11 -9 6 -15 14 -12 18 2 5 -10 19 -27
32 -17 13 -39 32 -49 43 -11 11 -24 16 -35 12 -14 -5 -15 -4 -4 9 7 8 10 16 6
16 -3 1 -10 3 -16 4 -5 1 -17 3 -26 4 -9 0 -12 6 -8 13 4 7 3 8 -5 4 -13 -8
-53 2 -47 12 2 4 -10 8 -28 9 -41 3 -59 7 -73 16 -6 4 -14 3 -18 -3 -4 -6 -12
-7 -18 -3 -18 11 -37 12 -37 2 0 -6 -8 -5 -20 1 -11 6 -20 7 -20 2 0 -10 -30
-9 -47 1 -6 4 -15 3 -18 -3 -5 -8 -11 -7 -21 1 -11 9 -14 9 -14 -1 0 -10 -3
-10 -14 -1 -10 8 -16 9 -21 1 -3 -6 -12 -7 -18 -3 -17 10 -47 11 -47 1 0 -5
-9 -4 -20 2 -11 6 -20 7 -20 2 0 -11 -53 -9 -62 3 -5 6 -8 5 -8 -4z"/>
</g>
</svg>
